<?xml version="1.0" standalone="no"?>
<!DOCTYPE svg PUBLIC "-//W3C//DTD SVG 20010904//EN"
 "http://www.w3.org/TR/2001/REC-SVG-20010904/DTD/svg10.dtd">
<svg version="1.0" xmlns="http://www.w3.org/2000/svg"
 width="1170.000000pt" height="780.000000pt" viewBox="0 0 1170.000000 780.000000"
 preserveAspectRatio="xMidYMid meet">

<g transform="translate(0.000000,780.000000) scale(0.100000,-0.100000)"
fill="#000000" stroke="none">
<path d="M0 5338 l1 -2463 44 -22 c25 -13 58 -23 74 -23 16 0 34 -7 42 -16 18
-22 58 -41 104 -48 21 -4 42 -10 45 -15 3 -4 26 -14 53 -22 32 -9 47 -19 47
-31 0 -9 9 -19 19 -23 11 -3 23 -15 26 -26 4 -10 11 -19 16 -19 14 0 11 -20
-6 -37 -12 -12 -15 -34 -13 -101 3 -78 5 -87 23 -91 11 -2 31 -12 44 -22 13
-11 35 -19 48 -19 42 0 63 -17 54 -43 -7 -19 -23 -25 -102 -40 -52 -10 -116
-21 -144 -24 -27 -3 -59 -12 -70 -19 -16 -12 -48 -13 -163 -8 l-142 7 0 -31
c0 -28 6 -34 44 -52 54 -24 56 -24 56 -5 0 19 9 19 31 -1 9 -8 32 -18 51 -20
18 -3 38 -11 43 -17 6 -7 28 -11 50 -9 30 3 37 0 29 -8 -6 -6 -27 -13 -45 -15
-41 -3 -69 -14 -69 -26 0 -5 -12 -9 -27 -9 -16 0 -53 -16 -83 -35 -30 -19 -60
-35 -67 -35 -11 0 -13 -185 -13 -985 l0 -985 5850 0 5850 0 0 3900 0 3900
-3735 0 c-3722 0 -3735 0 -3755 -20 -11 -11 -29 -20 -40 -20 -12 0 -38 9 -60
20 -38 19 -58 20 -477 19 l-438 -1 74 -24 c41 -13 77 -27 80 -31 3 -4 15 -9
26 -11 53 -6 126 -26 135 -37 13 -15 -15 -55 -39 -55 -33 0 -89 29 -96 49 -4
12 -12 18 -21 14 -7 -3 -14 0 -14 6 0 8 -6 7 -20 -1 -16 -10 -28 -9 -67 6 -27
10 -63 22 -80 27 -22 7 -33 16 -33 28 0 11 -7 21 -15 25 -18 6 -45 -2 -45 -15
0 -14 -34 -11 -56 6 -28 21 -744 22 -744 1 0 -7 -7 -19 -15 -26 -10 -9 -15 -9
-15 -1 0 6 -7 11 -16 11 -10 0 -14 6 -10 15 5 13 -123 15 -1109 15 l-1115 0 0
-2462z m1649 2428 c9 -10 8 -16 -4 -26 -21 -17 -51 6 -34 26 6 8 15 14 19 14
4 0 13 -6 19 -14z m691 -34 c36 -10 74 -23 85 -29 11 -6 41 -13 66 -17 46 -7
89 -40 89 -70 0 -7 8 -16 18 -19 9 -2 25 -8 35 -12 13 -5 17 -2 17 14 0 18 5
21 30 19 21 -2 30 -7 30 -20 0 -10 -5 -18 -11 -18 -24 0 5 -20 44 -31 23 -6
50 -19 60 -30 19 -20 23 -34 7 -24 -13 8 -13 -11 0 -35 7 -12 21 -18 45 -18
20 0 44 -7 53 -15 10 -9 31 -16 47 -15 17 0 58 -9 92 -21 34 -11 70 -21 80
-21 10 0 27 -7 37 -15 11 -8 27 -13 36 -10 9 3 41 -3 71 -13 56 -20 71 -40 49
-67 -23 -28 -87 -14 -144 32 -21 18 -32 21 -41 13 -10 -9 -35 -5 -97 15 -46
15 -89 29 -97 31 -8 3 -11 7 -8 10 3 4 0 13 -8 20 -14 14 -45 9 -45 -7 0 -11
-41 -12 -56 -1 -6 4 -13 14 -17 24 -4 13 -14 15 -48 11 -32 -5 -44 -2 -51 11
-6 11 -23 16 -53 16 -36 0 -49 -5 -73 -31 -28 -30 -29 -30 -64 -16 -20 8 -62
21 -94 27 -83 17 -101 32 -98 77 2 38 12 103 20 134 4 13 -8 21 -51 34 -44 14
-55 22 -55 39 0 20 17 46 30 46 3 0 34 -8 70 -18z m-700 -42 c0 -13 -7 -20
-20 -20 -22 0 -28 25 -7 33 22 10 27 7 27 -13z m2086 -56 c40 -19 44 -46 10
-62 -23 -10 -79 -4 -105 12 -12 8 -15 49 -4 59 12 12 64 7 99 -9z m-2066 -23
c0 -16 -27 -31 -44 -25 -19 7 -21 25 -4 42 12 12 48 -1 48 -17z m-16 -57 c8
-21 -11 -45 -30 -37 -17 6 -18 25 -2 41 16 16 25 15 32 -4z m6 -74 c12 -8 12
-11 -3 -28 -9 -10 -17 -34 -17 -52 0 -46 -9 -33 -16 23 -7 63 3 78 36 57z
m606 -78 c-14 -21 -26 -42 -26 -48 0 -10 94 -40 159 -50 24 -3 52 -15 63 -26
14 -14 35 -20 76 -22 31 -1 81 -10 110 -20 49 -16 53 -20 48 -42 -4 -14 -2
-24 4 -24 5 0 10 6 10 14 0 9 12 16 28 18 33 4 176 -30 180 -43 2 -5 18 -9 35
-9 38 0 99 -15 144 -36 17 -8 38 -11 46 -8 8 3 18 1 22 -5 3 -6 19 -11 34 -11
35 0 91 -19 91 -31 0 -5 19 -9 43 -9 46 0 155 -29 201 -53 16 -9 34 -13 39
-10 5 3 8 0 5 -8 -2 -7 -16 -16 -31 -20 -56 -15 -236 18 -222 41 2 4 -4 15
-15 25 -11 10 -20 13 -20 8 0 -6 -17 -15 -37 -20 -55 -13 -55 -39 -2 -53 52
-14 88 -39 89 -61 0 -9 12 -21 28 -27 51 -19 250 -72 271 -72 11 0 42 -9 70
-19 27 -11 51 -18 54 -15 9 9 118 -24 138 -42 27 -24 24 -52 -6 -60 -35 -9
-97 0 -200 28 -49 14 -153 40 -230 58 -139 34 -189 58 -178 87 3 7 0 13 -6 13
-6 0 -11 -7 -11 -15 0 -25 -94 -19 -200 14 -52 16 -131 37 -175 46 -44 8 -93
21 -110 27 -16 5 -56 16 -88 23 -32 7 -64 18 -71 24 -7 6 -41 13 -77 15 -70 6
-270 54 -308 75 -19 10 -22 18 -17 42 6 33 -3 41 -59 49 -43 5 -55 26 -37 64
18 37 20 65 6 83 -7 10 -14 28 -14 40 0 37 -11 53 -35 53 -13 0 -25 6 -28 13
-4 10 -7 10 -18 0 -26 -25 -40 -15 -37 25 2 30 7 38 26 40 15 2 22 -2 22 -13
0 -13 6 -16 25 -11 14 4 46 -2 77 -14 l52 -20 34 38 c34 37 35 37 45 15 8 -18
5 -30 -17 -61z m3279 42 c28 -4 66 -8 85 -9 137 -9 200 -16 235 -24 22 -5 108
-15 190 -21 83 -6 159 -14 170 -17 11 -2 61 -9 110 -13 257 -25 245 -23 283
-55 26 -22 45 -26 148 -35 152 -13 249 -25 454 -55 347 -52 379 -54 419 -38
41 18 153 14 306 -11 50 -8 128 -19 175 -25 262 -32 292 -39 319 -65 34 -34
22 -54 -47 -81 -29 -11 -52 -25 -52 -31 0 -6 18 -14 40 -18 30 -5 44 -13 52
-31 10 -22 8 -29 -13 -51 -21 -22 -30 -25 -69 -20 -25 2 -45 5 -46 5 -4 3 4
39 10 49 4 7 6 14 5 15 -35 18 -45 29 -49 52 -7 41 -58 65 -160 76 -295 30
-407 47 -447 68 -24 12 -43 28 -43 37 0 8 -5 12 -11 9 -6 -4 -56 -2 -112 4
-56 6 -140 16 -187 21 -47 5 -139 14 -205 20 -133 12 -245 25 -379 46 -79 12
-92 12 -107 -1 -20 -19 -50 -20 -164 -6 -183 24 -197 24 -238 3 -20 -11 -40
-16 -43 -11 -9 14 -24 0 -24 -22 0 -12 5 -17 10 -14 13 8 109 -13 127 -27 7
-6 57 -11 111 -13 105 -2 142 -14 142 -45 0 -14 14 -23 55 -36 46 -15 55 -22
55 -41 0 -14 -6 -23 -15 -23 -8 0 -15 5 -15 11 0 8 -5 8 -15 -1 -8 -7 -15 -8
-15 -3 0 9 -130 34 -139 27 -2 -2 -1 -14 3 -28 5 -20 14 -26 49 -30 23 -2 80
-9 128 -15 47 -6 108 -11 136 -11 48 0 52 -2 102 -54 53 -57 61 -79 38 -111
-13 -17 -22 -17 -153 -7 -301 24 -331 25 -338 6 -8 -21 12 -36 37 -28 9 3 17
1 17 -4 0 -5 37 -12 83 -15 45 -4 98 -12 117 -17 19 -6 91 -12 160 -14 153 -4
200 -19 200 -64 0 -48 -17 -54 -127 -47 -54 4 -115 11 -135 16 -27 7 -53 6
-93 -5 -30 -8 -64 -12 -74 -9 -10 3 -22 0 -25 -6 -4 -6 -12 -11 -17 -11 -6 0
-8 4 -5 9 8 12 -117 42 -128 31 -15 -15 1 -39 23 -33 12 3 21 1 21 -6 0 -6 12
-11 27 -11 29 0 103 -71 103 -99 0 -26 -19 -48 -28 -34 -4 7 -13 9 -21 4 -8
-5 -26 -5 -41 -1 -15 4 -34 4 -41 -1 -8 -5 -21 -6 -30 -3 -10 2 -19 -2 -23
-11 -4 -12 0 -16 17 -14 12 1 29 -1 37 -4 8 -4 92 -16 185 -26 l170 -20 32
-38 c18 -21 33 -48 33 -60 0 -17 6 -23 23 -24 12 -1 31 -3 42 -5 11 -2 43 -8
70 -12 68 -11 95 -27 88 -52 -4 -15 -11 -19 -25 -14 -12 3 -18 2 -15 -3 4 -6
-18 -10 -53 -10 -32 0 -59 2 -58 6 2 19 -3 31 -11 26 -5 -3 -16 1 -24 9 -8 8
-16 13 -18 11 -2 -2 -50 -5 -107 -6 -95 -3 -107 -6 -103 -31 0 -5 -16 -8 -37
-8 -48 0 -55 -6 -34 -31 18 -20 67 -26 77 -8 5 7 11 5 18 -4 7 -8 29 -18 49
-21 28 -5 42 -14 53 -36 21 -40 111 -81 225 -100 90 -15 130 -33 130 -60 0
-11 -4 -20 -10 -20 -5 0 -10 -7 -10 -14 0 -8 -11 -27 -25 -42 l-25 -27 -117 7
c-65 4 -149 7 -188 7 -242 -1 -230 1 -260 -27 -26 -24 -34 -26 -83 -21 -30 3
-62 13 -73 23 -20 18 -26 59 -9 69 17 11 11 20 -20 32 -19 7 -30 18 -30 31 0
11 -7 25 -15 32 -8 7 -15 20 -15 30 0 10 -10 24 -22 32 -20 13 -21 17 -9 32
11 13 11 19 0 32 -10 13 -10 17 0 23 10 7 11 13 1 31 -9 16 -9 24 -1 29 8 5 7
13 -4 27 -22 29 -19 100 4 116 26 19 25 105 -1 114 -25 8 -24 54 2 61 17 5 19
13 17 59 -1 41 -6 54 -19 58 -23 5 -24 52 -2 60 12 5 15 16 12 44 -3 25 0 40
10 48 13 9 10 13 -16 22 -18 6 -32 18 -32 26 0 25 12 46 26 46 8 0 14 9 14 20
0 11 4 20 9 20 15 0 19 61 4 75 -7 7 -10 21 -7 29 4 11 0 16 -13 16 -19 0 -43
18 -43 32 0 4 12 14 28 22 l27 14 -30 7 c-47 10 -59 20 -69 54 -7 26 -17 34
-55 45 -50 15 -59 12 -66 -23 -6 -30 -22 -49 -48 -57 -12 -3 -29 -14 -37 -24
-20 -22 -105 -17 -96 7 3 8 3 13 -1 11 -42 -20 -63 -28 -95 -33 -21 -3 -38
-10 -38 -14 0 -20 71 -41 135 -41 66 0 67 -1 111 -45 40 -39 45 -49 42 -82 -2
-28 -9 -41 -25 -48 -25 -11 -29 -20 -13 -30 14 -9 13 -45 -2 -45 -6 0 -4 -8 6
-19 12 -13 15 -27 10 -46 -4 -17 -2 -30 6 -35 9 -6 9 -12 0 -30 -9 -16 -9 -25
-1 -33 14 -14 14 -54 1 -62 -5 -3 -10 -14 -10 -24 0 -16 -10 -17 -111 -13 -92
4 -111 2 -107 -9 3 -9 26 -16 64 -20 78 -8 102 -16 109 -39 7 -22 -14 -69 -53
-124 -33 -44 -31 -73 6 -143 16 -30 30 -44 50 -48 79 -16 100 -34 89 -76 -9
-36 -69 -109 -88 -109 -52 0 -53 -8 -24 -115 41 -152 28 -181 -77 -172 -55 5
-68 3 -68 -9 0 -11 20 -14 105 -14 121 0 151 -10 161 -53 5 -26 2 -35 -19 -53
-15 -12 -34 -20 -44 -18 -10 3 -29 1 -43 -4 l-25 -10 30 -7 c61 -15 75 -31 75
-86 0 -28 5 -60 12 -72 37 -67 47 -138 27 -196 -13 -36 -35 -51 -78 -51 -43 0
-39 -15 7 -26 32 -8 41 -17 66 -66 24 -49 27 -64 21 -108 -8 -55 -22 -69 -85
-80 -28 -4 -38 -13 -52 -42 -18 -37 -18 -37 7 -62 29 -29 30 -35 10 -83 -8
-19 -15 -37 -15 -38 0 -1 18 -5 40 -9 61 -10 69 -29 69 -185 1 -74 4 -137 7
-140 6 -7 1383 -3 1484 4 36 2 457 7 935 10 479 4 996 8 1150 10 234 3 284 1
303 -11 27 -18 29 -54 4 -84 l-18 -23 -490 -2 c-269 -2 -790 -8 -1159 -14
-368 -6 -980 -16 -1360 -22 -400 -6 -697 -14 -707 -20 -12 -6 -18 -21 -18 -44
0 -25 -7 -39 -27 -55 -24 -19 -35 -21 -83 -15 -30 4 -79 6 -108 6 -29 -1 -61
3 -72 9 -15 8 -27 7 -49 -5 -53 -27 -101 -12 -129 40 -6 11 -12 14 -12 8 0
-15 -52 -43 -80 -43 -11 0 -28 8 -38 18 -18 18 -19 18 -40 -5 -49 -55 -151 -9
-139 62 4 22 1 38 -8 45 -20 17 -23 51 -7 84 8 17 11 41 7 62 -6 34 4 63 32
96 12 13 15 58 16 225 0 114 2 177 4 138 2 -38 9 -72 14 -76 6 -3 13 -62 16
-130 l6 -124 46 -52 c27 -30 52 -51 61 -49 8 2 31 7 50 10 l35 6 1 110 c0 82
-3 110 -13 114 -7 3 -13 14 -13 24 0 10 -11 29 -24 41 -41 39 -40 70 5 118 21
23 39 46 39 51 0 4 13 13 30 19 27 10 29 14 24 45 -4 18 -11 41 -16 52 -7 13
-6 26 3 42 10 20 10 27 -6 44 -22 25 -24 73 -3 97 16 19 17 73 3 107 -5 11 -3
27 5 39 10 17 10 22 -4 32 -9 7 -16 22 -16 33 0 12 -8 26 -19 31 -15 8 -19 22
-19 63 0 29 5 56 12 61 8 5 6 11 -6 21 -10 7 -18 22 -18 32 0 11 -9 25 -21 32
-11 7 -27 28 -35 47 -7 18 -23 36 -33 40 -11 3 -23 15 -26 26 -4 10 -10 17
-15 14 -5 -3 -12 -1 -15 5 -4 6 5 22 20 35 25 24 44 31 94 37 35 4 38 30 29
203 -5 83 -8 170 -6 195 1 25 3 112 3 194 l0 149 -59 15 c-45 11 -60 11 -66 2
-4 -6 -10 -11 -14 -11 -3 1 -5 -1 -3 -4 5 -9 -39 -34 -60 -35 -48 0 -81 91
-51 140 10 16 9 25 -5 49 -22 38 -22 72 3 104 11 14 20 28 20 32 0 4 -9 18
-20 32 -11 14 -20 36 -20 48 0 12 9 34 20 48 11 14 20 28 20 32 0 4 -9 18 -20
32 -25 33 -25 57 1 94 26 37 51 37 83 -2 33 -39 33 -64 0 -94 l-27 -25 26 -20
c34 -27 43 -71 23 -111 -14 -28 -14 -34 -1 -52 19 -28 19 -91 0 -107 -8 -7
-15 -21 -15 -31 0 -28 43 -35 82 -12 33 19 33 19 36 109 4 107 -12 185 -45
215 -32 31 -29 63 8 89 l30 22 -20 22 c-27 28 -27 64 0 92 22 23 19 44 -6 44
-7 0 -22 11 -33 24 -24 31 -42 20 -45 -26 -4 -40 -31 -88 -50 -88 -21 0 -57
39 -57 62 0 12 7 30 16 39 15 17 14 21 -15 54 -34 40 -40 78 -16 113 11 15 14
32 9 57 -5 27 -2 41 12 56 18 21 21 21 149 3z m-3902 -137 c-19 -11 -23 -6
-16 21 5 21 6 21 18 5 11 -15 11 -19 -2 -26z m-2 -70 c-15 -15 -24 -2 -16 24
7 20 8 21 17 5 7 -12 7 -21 -1 -29z m1931 17 c35 -18 39 -59 7 -67 -24 -6 -71
0 -109 14 -25 9 -54 55 -45 70 8 11 116 -1 147 -17z m-1922 -94 c-22 -14 -30
-12 -30 8 0 28 12 34 29 17 14 -14 14 -17 1 -25z m-3 -45 c6 -14 10 -25 8 -25
-2 0 -11 -3 -19 -6 -13 -5 -16 0 -14 25 3 37 9 39 25 6z m8 -82 c5 -15 -9 -32
-26 -33 -11 0 -19 29 -13 44 7 18 30 11 39 -11z m485 18 c0 -6 -4 -13 -10 -16
-5 -3 -10 1 -10 9 0 9 5 16 10 16 6 0 10 -4 10 -9z m4759 -33 c18 -6 69 -10
112 -10 77 0 79 0 79 -24 0 -21 -5 -24 -33 -24 -20 0 -41 8 -51 19 -13 15 -26
17 -64 13 -26 -3 -49 -8 -52 -11 -3 -4 -25 -1 -50 5 -25 7 -38 13 -30 14 26 2
-22 19 -57 19 -18 1 -33 5 -33 9 0 11 137 3 179 -10z m-4697 -23 c35 -8 73
-16 84 -18 10 -1 25 -6 32 -11 7 -4 25 -6 40 -5 57 4 107 -18 122 -56 7 -17 9
-17 9 -2 1 21 47 23 77 3 11 -8 43 -14 71 -14 64 -1 113 -24 106 -50 -3 -13 4
-22 22 -30 37 -17 52 -15 58 9 5 19 11 20 75 15 88 -7 250 -43 280 -63 15 -9
22 -22 20 -36 -3 -20 5 -24 77 -43 44 -11 89 -25 100 -31 11 -6 49 -13 84 -16
35 -3 68 -10 74 -16 6 -6 23 -11 38 -11 14 0 71 -11 125 -24 54 -14 126 -30
159 -36 88 -18 125 -35 125 -60 0 -36 -39 -45 -135 -30 -47 7 -88 17 -91 22
-3 4 -16 8 -28 8 -13 0 -59 9 -102 21 -44 11 -110 27 -148 35 -38 7 -74 18
-80 24 -5 5 -26 10 -45 10 -19 0 -88 13 -155 29 -67 16 -155 37 -196 46 -112
24 -150 33 -208 47 -45 10 -55 10 -62 -2 -6 -8 -10 -18 -10 -22 0 -8 65 -28
90 -28 28 0 62 -31 57 -51 -3 -11 -1 -20 4 -20 19 -3 24 -5 37 -12 7 -5 12 -3
12 7 0 8 4 17 9 20 16 10 41 -5 41 -25 0 -20 26 -29 145 -49 71 -12 82 -14
218 -50 42 -11 88 -20 101 -20 13 0 39 -6 57 -14 19 -7 40 -11 47 -9 18 7 69
-16 76 -34 11 -27 -12 -53 -49 -53 -29 0 -125 18 -190 35 -11 3 -27 1 -35 -5
-13 -9 -13 -11 0 -20 23 -15 128 -40 325 -75 50 -9 94 -20 99 -26 6 -5 27 -9
49 -9 21 0 47 -5 58 -11 11 -6 35 -11 52 -11 49 -1 153 -26 195 -48 40 -21 68
-70 57 -98 -5 -12 -9 -13 -12 -4 -4 10 -9 10 -23 -3 -10 -9 -36 -17 -57 -17
-49 -1 -175 21 -187 33 -6 5 -27 9 -49 9 -21 0 -57 4 -80 9 -23 5 -80 17 -127
26 -47 9 -101 21 -120 26 -19 4 -64 13 -100 18 -80 12 -152 26 -295 57 -60 12
-130 26 -155 29 -25 4 -70 13 -100 20 -30 7 -74 16 -97 19 -42 6 -43 5 -43
-21 0 -26 3 -28 48 -31 26 -1 65 -6 87 -11 102 -24 221 -46 395 -72 30 -4 96
-18 145 -30 50 -12 112 -23 139 -26 28 -2 77 -11 110 -20 34 -8 77 -17 96 -20
81 -10 104 -51 48 -83 -23 -12 -31 -13 -48 -2 -11 6 -34 12 -52 12 -18 0 -69
7 -113 15 -44 9 -129 25 -190 36 -60 11 -132 23 -160 26 -45 4 -51 3 -60 -19
-12 -26 -28 -27 -152 -7 -101 16 -133 1 -73 -34 20 -12 30 -26 30 -42 0 -27
21 -35 150 -55 281 -43 411 -65 470 -79 19 -4 51 -9 70 -10 53 -2 154 -22 166
-32 6 -5 28 -8 50 -8 21 1 75 -4 119 -10 106 -16 139 -46 95 -86 -19 -17 -24
-17 -118 -1 -53 10 -104 20 -112 24 -8 3 -35 6 -60 7 -25 1 -76 7 -115 13
-229 38 -386 63 -425 67 -25 3 -61 10 -80 14 -19 5 -57 12 -85 15 -107 14
-241 38 -257 47 -10 5 -36 9 -58 9 -23 0 -73 6 -113 14 -40 8 -101 17 -136 20
-35 3 -70 11 -77 16 -13 12 -17 105 -16 393 0 92 -1 167 -3 167 -2 0 -15 -5
-28 -11 -24 -11 -24 -12 -6 -30 20 -20 27 -55 9 -44 -13 8 -13 -11 0 -36 15
-27 -5 -61 -33 -57 -21 3 -22 7 -19 101 3 56 0 97 -5 97 -6 0 -15 11 -21 24
-9 19 -7 32 9 62 10 21 19 43 19 50 0 6 -27 17 -60 24 -62 13 -78 30 -65 70 5
16 2 20 -14 20 -32 0 -115 24 -123 35 -9 12 0 45 18 66 16 18 19 73 4 64 -6
-4 -10 10 -10 34 0 23 4 41 9 41 6 0 38 -7 73 -15z m6468 -4 c141 -20 190 -33
190 -51 0 -7 9 -5 22 4 51 36 118 8 118 -49 0 -28 3 -32 19 -28 24 6 84 -24
75 -39 -12 -19 -139 -2 -174 23 -16 13 -30 28 -30 35 0 6 -7 17 -15 24 -12 10
-16 9 -21 -4 -3 -9 -1 -23 5 -30 22 -26 -8 -31 -154 -23 -27 2 -30 -1 -33 -29
-3 -30 -4 -31 -40 -24 -58 12 -72 20 -72 46 0 16 -10 28 -32 40 -29 15 -32 15
-43 0 -7 -9 -15 -16 -19 -16 -12 0 -6 29 10 44 9 10 13 24 9 36 -8 25 11 60
33 60 9 0 78 -9 152 -19z m-7030 -31 c0 -10 -4 -21 -9 -25 -5 -3 -9 8 -9 24 1
32 18 33 18 1z m14 -74 c9 -13 7 -20 -6 -30 -16 -12 -16 -14 -1 -35 13 -20 13
-25 2 -32 -29 -18 -37 -9 -37 39 0 81 15 102 42 58z m6440 -1 c20 -14 48 -25
62 -25 14 0 32 -6 40 -14 18 -19 30 -121 15 -130 -6 -4 -11 -16 -11 -27 0 -23
-15 -25 -24 -4 -9 26 -34 17 -41 -15 -4 -16 -4 -43 0 -58 6 -31 -25 -82 -50
-82 -25 0 -55 42 -55 77 0 18 -9 56 -21 84 -11 29 -23 80 -26 114 -5 55 -3 65
16 84 27 27 50 27 95 -4z m1196 -79 c0 -4 -10 -6 -22 -2 -13 3 -29 6 -37 6
-10 0 -11 3 -2 14 9 11 17 11 36 2 14 -6 25 -15 25 -20z m-489 -59 c20 -17 39
-40 42 -49 3 -9 25 -22 49 -28 24 -6 66 -18 94 -26 28 -8 70 -13 93 -12 27 1
48 -4 58 -15 15 -15 15 -18 0 -35 -21 -23 -21 -32 -3 -32 8 0 18 -5 22 -12 5
-8 -2 -9 -24 -5 -18 4 -39 4 -47 0 -14 -5 -13 -8 4 -24 23 -21 43 -24 72 -9
15 8 23 7 35 -5 8 -8 22 -15 31 -15 8 0 49 -14 91 -31 47 -18 96 -31 127 -31
47 -1 133 -30 136 -46 1 -4 3 -24 4 -44 3 -49 -10 -52 -137 -43 -84 6 -102 4
-117 -9 -15 -14 -26 -15 -72 -5 -30 6 -63 20 -75 30 -24 23 -43 24 -50 5 -3
-8 -23 -22 -45 -30 -21 -9 -38 -22 -37 -28 2 -9 -7 -12 -28 -10 -16 1 -41 -1
-54 -6 l-24 -9 24 -14 c14 -7 47 -18 74 -24 39 -8 56 -18 80 -48 35 -43 30
-65 -20 -80 -16 -5 -43 -15 -61 -23 -17 -8 -38 -14 -47 -14 -9 0 -19 -7 -22
-15 -8 -21 -84 -21 -84 0 0 9 -11 20 -25 25 -22 8 -25 15 -25 59 0 27 -4 53
-10 56 -5 3 -10 13 -10 21 0 9 -7 22 -15 31 -26 25 -13 46 38 62 45 14 63 31
32 31 -28 0 -44 43 -47 123 -1 45 -7 85 -14 95 -8 9 -14 25 -14 34 0 11 -14
21 -38 29 -22 6 -42 20 -48 33 -5 11 -19 25 -31 31 -25 11 -29 20 -13 30 19
12 10 34 -20 52 -54 31 -30 57 58 60 52 3 60 0 93 -30z m-7151 -2 c10 -12 9
-19 -3 -38 -11 -16 -12 -28 -5 -41 6 -11 6 -21 -2 -30 -8 -10 -7 -21 1 -40 9
-20 9 -29 0 -40 -9 -11 -10 -20 -1 -36 9 -17 8 -25 -4 -39 -14 -15 -14 -18 4
-31 24 -17 25 -29 4 -45 -14 -10 -14 -15 -5 -34 9 -17 10 -26 1 -36 -9 -10 -7
-20 5 -38 11 -17 13 -27 6 -32 -6 -3 -11 -24 -11 -45 0 -25 -6 -42 -15 -48
-13 -7 -11 -11 10 -22 27 -15 32 -29 13 -48 -9 -9 -8 -17 2 -37 10 -19 11 -28
3 -36 -8 -8 -8 -18 0 -36 8 -18 8 -29 -1 -44 -16 -24 -15 -46 1 -52 8 -3 6 -9
-7 -20 -19 -14 -19 -16 -4 -39 15 -23 15 -27 1 -40 -12 -13 -13 -20 -3 -38 9
-18 9 -25 -5 -40 -16 -18 -16 -19 4 -32 25 -15 27 -31 6 -48 -14 -11 -14 -16
-1 -35 13 -20 13 -24 -1 -38 -14 -14 -14 -17 1 -33 10 -10 14 -23 10 -33 -4
-9 -9 -32 -12 -51 -2 -19 -10 -38 -16 -42 -7 -5 -4 -12 10 -22 17 -12 21 -26
21 -71 0 -31 -4 -58 -8 -61 -5 -3 -4 -14 2 -26 6 -11 8 -31 3 -46 -11 -39 -11
-94 -1 -118 6 -14 5 -29 -1 -40 -6 -11 -7 -27 -1 -42 6 -17 6 -29 -2 -38 -9
-11 -8 -19 5 -33 14 -16 15 -23 6 -41 -6 -12 -9 -33 -5 -47 3 -14 1 -31 -6
-39 -8 -10 -7 -17 6 -30 10 -10 13 -23 9 -33 -4 -9 -8 -30 -9 -48 -1 -18 -8
-39 -15 -48 -10 -12 -10 -15 4 -15 20 0 18 7 21 -115 1 -55 -2 -109 -8 -119
-7 -14 -5 -21 7 -28 11 -6 14 -14 8 -21 -12 -15 -12 -49 0 -64 5 -7 5 -14 -1
-17 -5 -4 -7 -22 -4 -42 4 -24 2 -39 -7 -44 -11 -7 -11 -11 1 -26 16 -19 22
-134 7 -134 -5 0 -4 -9 2 -21 13 -24 5 -116 -12 -136 -9 -11 -7 -17 9 -28 17
-12 21 -24 19 -69 -1 -30 -4 -58 -8 -61 -4 -4 -2 -18 5 -32 8 -18 8 -32 -1
-56 -8 -21 -9 -33 -2 -35 13 -5 13 -32 0 -32 -10 0 -8 -23 5 -54 5 -11 3 -21
-4 -25 -9 -6 -9 -15 -1 -36 7 -18 7 -32 1 -38 -6 -6 -5 -15 5 -24 19 -20 29
-62 16 -75 -5 -5 -28 -12 -50 -15 -35 -5 -42 -2 -56 19 -13 20 -14 31 -7 52 6
14 8 32 5 40 -3 8 1 25 10 37 14 20 14 23 -2 35 -14 10 -15 15 -3 38 11 20 12
28 1 40 -9 12 -9 23 -2 46 7 18 7 30 1 30 -12 0 -12 36 1 60 7 13 6 19 -5 24
-16 6 -21 36 -6 36 15 0 20 38 5 44 -15 6 -19 36 -5 36 18 0 21 33 5 45 -14
10 -15 17 -6 43 8 23 8 32 -1 35 -9 3 -9 13 0 40 6 21 7 37 2 37 -13 0 -11 34
3 48 9 9 9 15 0 24 -14 14 -16 48 -4 48 15 0 9 34 -7 48 -15 11 -15 13 0 25
25 19 25 23 6 45 -16 17 -16 23 -5 41 7 12 17 21 22 21 4 0 -2 8 -14 18 -22
18 -22 20 -6 44 15 23 15 26 1 31 -17 7 -21 37 -5 37 14 0 13 33 -2 48 -9 9
-9 17 2 36 11 21 11 28 0 41 -10 12 -10 21 -1 41 9 20 9 30 0 40 -9 11 -9 21
-1 38 7 17 7 27 -1 35 -8 8 -8 19 0 40 7 20 7 33 1 39 -7 7 -7 21 0 41 7 19 7
31 1 31 -12 0 -12 40 1 60 6 9 5 19 -2 28 -9 10 -9 18 -1 31 8 13 7 24 -2 41
-9 17 -10 30 -3 46 7 15 7 28 0 40 -7 12 -6 23 1 36 9 14 9 23 -2 40 -12 20
-11 24 12 44 18 15 22 25 15 32 -7 7 -7 20 0 40 7 21 7 33 -1 41 -8 8 -7 18 3
36 12 23 12 28 0 35 -12 7 -13 15 -4 39 8 21 8 33 1 40 -7 7 -7 18 2 37 9 20
9 30 0 40 -9 11 -9 21 0 41 10 21 9 28 -1 34 -10 6 -10 15 -1 39 6 16 8 32 4
35 -11 6 -10 116 1 138 5 9 5 17 0 17 -4 0 -9 53 -10 118 0 64 -1 125 -1 135
-1 20 -1 50 0 75 0 9 1 118 2 242 1 124 6 230 10 237 4 7 2 21 -5 32 -22 36
25 69 52 36z m2370 -259 c0 -8 -4 -18 -10 -21 -5 -3 -10 3 -10 14 0 12 5 21
10 21 6 0 10 -6 10 -14z m145 -13 c11 -6 65 -16 120 -21 103 -10 150 -24 159
-48 8 -21 -4 -45 -28 -53 -23 -9 -122 11 -139 28 -6 6 -19 11 -29 11 -10 0
-21 7 -24 15 -5 11 -21 15 -59 15 -67 0 -106 14 -100 35 3 8 7 21 9 29 5 15
52 9 91 -11z m5566 -105 c22 -6 39 -16 39 -22 0 -7 9 -12 20 -13 11 -1 20 4
20 13 0 17 65 19 106 4 27 -11 59 -45 59 -65 1 -41 -125 -53 -156 -15 -16 18
-19 19 -48 4 -39 -19 -107 -11 -114 14 -3 9 -8 25 -12 34 -4 10 1 24 14 37 25
25 23 24 72 9z m-1603 -166 c21 -27 15 -70 -13 -88 -23 -15 -27 -15 -50 0 -14
10 -31 29 -38 43 -10 23 -8 28 17 50 30 26 61 24 84 -5z m-1928 -62 c0 -15 -8
-38 -19 -51 -18 -22 -19 -22 -45 -6 -34 23 -37 78 -5 101 19 13 24 13 45 -1
16 -10 24 -25 24 -43z m2630 -201 c42 -39 60 -49 98 -54 26 -3 69 -10 97 -17
27 -6 71 -10 96 -9 59 2 83 -18 74 -60 -5 -21 -2 -31 9 -35 9 -3 16 -14 16
-24 0 -14 15 -23 58 -35 95 -28 191 -46 215 -40 28 8 109 -34 122 -63 12 -27
50 -24 50 4 0 16 7 19 50 17 28 -1 91 -2 140 -3 124 0 148 -8 155 -51 3 -19 3
-45 0 -58 -5 -23 -9 -24 -80 -22 -47 1 -84 8 -99 18 -17 11 -26 12 -34 4 -12
-12 -85 -15 -111 -5 -9 3 -16 12 -16 20 0 7 -9 18 -21 24 -17 10 -21 8 -26 -9
-7 -28 -34 -35 -139 -32 -59 1 -102 -3 -125 -12 -48 -20 -132 -8 -156 22 l-18
23 -27 -25 c-15 -14 -37 -28 -48 -32 -13 -4 -19 -12 -16 -21 4 -10 -2 -14 -18
-14 -13 0 -38 -3 -55 -6 -45 -9 -23 -30 42 -39 42 -6 58 -14 84 -43 50 -54 45
-68 -39 -106 -31 -14 -65 -26 -76 -26 -10 0 -27 -9 -37 -20 -25 -27 -65 -25
-94 5 -13 14 -27 25 -32 25 -5 0 -9 19 -9 43 0 45 -31 122 -51 129 -9 3 -8 10
2 25 13 22 38 33 77 33 30 0 28 12 -8 32 -32 18 -32 21 -32 143 0 27 -6 58
-14 69 -8 11 -14 28 -14 37 0 11 -11 19 -34 23 -20 4 -41 16 -50 31 -9 14 -23
25 -32 25 -8 0 -17 6 -20 14 -6 17 40 94 62 103 8 3 12 13 9 23 -10 31 23 18
75 -31z m-6432 -11 c3 -34 5 -36 45 -41 84 -10 203 -28 262 -40 55 -11 60 -14
63 -40 5 -40 -15 -60 -52 -52 -17 3 -62 10 -101 15 -255 32 -288 46 -279 118
11 77 14 83 37 80 17 -2 23 -11 25 -40z m-110 -129 l3 -35 132 -19 c73 -10
139 -24 148 -31 9 -8 19 -11 22 -7 4 3 7 -5 7 -19 0 -26 16 -38 51 -38 12 0
19 7 19 19 0 21 22 33 44 25 20 -8 29 -36 14 -45 -14 -9 -4 -14 52 -24 41 -7
86 -54 53 -56 -11 0 -13 -3 -5 -6 6 -2 12 -11 12 -19 0 -10 8 -12 29 -8 16 3
39 1 51 -6 13 -7 52 -14 89 -15 36 -2 95 -8 131 -14 36 -7 92 -13 126 -15 96
-6 127 -32 84 -71 -15 -14 -29 -16 -64 -11 -24 4 -50 14 -57 22 -9 11 -25 13
-69 8 -51 -6 -150 7 -190 24 -8 3 -37 7 -65 8 -45 2 -155 16 -180 24 -5 1 -29
2 -52 1 -35 -1 -43 -5 -43 -20 0 -19 -47 -58 -65 -52 -5 1 -44 6 -86 10 -41 5
-88 14 -105 22 -25 12 -29 20 -32 63 -2 26 1 60 6 75 5 14 6 37 2 51 -5 20
-14 26 -49 32 -24 4 -46 10 -50 13 -3 4 -5 24 -5 46 1 21 -2 39 -7 39 -16 0
-9 49 9 59 26 16 37 8 40 -30z m362 -114 c0 -8 -2 -15 -4 -15 -2 0 -6 7 -10
15 -3 8 -1 15 4 15 6 0 10 -7 10 -15z m4034 -10 c31 -11 49 -11 80 -3 55 15
192 2 215 -20 28 -27 54 -39 99 -47 44 -7 51 -19 31 -57 -8 -14 -17 -18 -34
-14 -16 4 -25 1 -29 -10 -6 -15 -8 -15 -24 0 -11 9 -36 16 -60 16 -35 0 -47
-6 -84 -45 -43 -44 -44 -44 -103 -41 -33 2 -78 9 -101 16 -29 9 -50 9 -77 2
-47 -13 -221 -3 -244 13 -12 9 -18 28 -18 58 -1 25 -6 51 -12 59 -30 38 -20
72 27 92 26 10 292 -5 334 -19z m757 -96 c23 -12 24 -42 2 -75 -15 -24 -19
-25 -88 -20 -87 7 -99 11 -115 40 -15 30 0 62 32 69 33 8 148 -2 169 -14z
m-5146 -129 c4 -13 0 -31 -10 -47 l-17 -25 -20 20 c-28 28 -18 72 17 72 15 0
26 -7 30 -20z m1310 -4 c31 -13 36 -20 31 -38 -3 -13 -6 -26 -6 -29 0 -8 -89
-11 -122 -4 -15 4 -30 15 -33 26 -4 10 -13 19 -21 19 -16 0 -18 12 -4 26 17
17 115 16 155 0z m-1560 -61 c0 -33 -4 -41 -22 -43 -27 -4 -38 25 -23 62 16
43 45 31 45 -19z m4488 3 c12 -7 46 -13 76 -13 32 -1 56 -6 59 -13 2 -6 27
-15 55 -18 37 -5 58 -14 76 -35 24 -24 35 -28 121 -34 105 -7 214 -19 363 -38
54 -7 101 -9 103 -5 3 5 27 6 52 3 26 -4 65 -7 87 -8 32 -2 41 -6 43 -23 4
-27 -32 -59 -55 -48 -10 4 -31 8 -48 9 -16 1 -42 4 -57 8 -20 5 -28 4 -28 -5
0 -7 -19 -28 -41 -47 -39 -32 -42 -33 -122 -30 -69 3 -86 8 -105 27 -19 19
-33 22 -94 22 -69 0 -74 -2 -85 -26 -10 -23 -9 -29 10 -49 12 -12 42 -31 67
-42 39 -17 49 -18 75 -7 48 21 121 18 145 -6 26 -26 25 -46 -5 -75 -29 -29
-71 -32 -121 -9 -22 10 -46 14 -66 10 -92 -17 -113 -18 -168 -6 -33 7 -60 17
-60 22 0 6 -7 7 -16 4 -9 -4 -23 -1 -30 5 -9 8 -14 8 -14 1 0 -17 -102 -35
-164 -30 -35 3 -63 12 -76 23 -22 20 -26 55 -8 73 12 12 12 11 -37 27 -27 8
-38 55 -24 100 7 22 17 46 22 53 7 9 3 12 -14 12 -57 2 -123 59 -135 118 -5
26 -2 32 22 46 35 19 166 21 197 4z m-4593 -68 c0 -9 -6 -25 -14 -35 -12 -16
-16 -17 -30 -6 -21 18 -21 67 2 80 19 11 42 -10 42 -39z m-136 -106 c11 -28 6
-61 -10 -75 -14 -11 -18 -10 -30 6 -17 22 -18 40 -4 66 13 23 36 25 44 3z
m7001 -33 c3 -11 16 -21 28 -23 12 -2 28 -15 35 -30 9 -19 22 -29 45 -32 101
-15 138 -19 192 -21 33 -1 68 -2 77 -3 22 -2 34 -47 18 -67 -9 -11 -5 -16 27
-24 33 -8 118 -21 228 -35 17 -2 43 1 58 7 21 7 32 6 45 -6 9 -9 30 -20 45
-26 15 -6 31 -20 35 -32 8 -22 8 -22 28 4 l20 25 161 -3 c88 -1 165 -5 171 -9
6 -4 14 -28 18 -54 3 -26 11 -53 16 -59 6 -7 7 -25 3 -40 -6 -27 -7 -28 -22
-8 -11 14 -17 16 -20 8 -7 -18 -43 -16 -43 2 0 20 -27 19 -38 -1 -6 -11 -21
-14 -53 -12 -36 2 -44 6 -44 23 0 11 -6 20 -12 19 -7 -1 -19 -2 -27 -2 -7 -1
-16 -11 -19 -22 -4 -14 -14 -20 -34 -20 -19 0 -39 -10 -58 -30 -32 -33 -58
-38 -77 -14 -62 76 -77 85 -139 86 -33 0 -65 -4 -72 -11 -6 -6 -42 -11 -82
-11 -58 0 -74 3 -88 20 -20 24 -79 27 -101 5 -16 -17 -91 -21 -101 -5 -7 11
-67 9 -76 -4 -4 -4 -16 0 -27 10 -11 11 -28 25 -36 32 -10 8 -16 28 -16 51 0
22 -6 44 -15 51 -8 7 -15 20 -15 30 0 13 -11 19 -39 24 -26 4 -44 14 -55 31
-9 14 -23 25 -31 25 -19 0 -19 13 0 49 8 16 12 30 10 33 -2 2 9 12 26 23 16
11 27 26 24 33 -2 6 1 12 8 12 8 0 6 4 -3 10 -13 8 -13 10 2 10 9 0 19 -9 23
-19z m-6957 -213 c9 -9 17 -8 37 2 21 11 54 11 202 0 98 -7 207 -17 243 -22
36 -5 112 -11 170 -13 224 -7 280 -19 280 -59 0 -19 6 -25 30 -28 25 -4 29 -1
32 21 2 21 9 27 35 29 31 3 32 2 35 -40 2 -28 7 -42 16 -41 7 2 12 -8 12 -26
0 -26 3 -30 29 -29 25 1 31 6 33 27 2 18 9 26 21 25 9 -1 24 -2 33 -3 11 -1
14 -9 12 -28 -3 -27 0 -28 47 -35 85 -12 566 -41 640 -39 39 1 134 -7 213 -19
101 -14 171 -19 240 -15 69 4 117 0 167 -11 39 -9 88 -19 110 -22 40 -7 58
-33 38 -53 -17 -17 -239 -19 -300 -3 -41 11 -110 15 -233 16 -99 0 -212 6
-260 14 -47 7 -143 16 -215 18 -71 3 -193 10 -270 15 -159 12 -476 32 -580 36
-38 2 -85 7 -102 11 -31 6 -33 5 -33 -20 0 -14 -5 -26 -11 -26 -5 0 -8 -4 -5
-8 2 -4 -9 -9 -27 -10 -37 -3 -34 -1 -39 -32 -3 -23 0 -25 47 -28 59 -4 78
-17 72 -49 -4 -22 -2 -24 42 -23 25 1 64 -3 86 -9 22 -5 41 -8 43 -6 2 2 12
-5 23 -16 18 -18 27 -61 12 -57 -5 0 -16 -2 -26 -7 -11 -4 -71 -5 -135 -2 -65
4 -166 9 -225 11 -114 5 -147 17 -147 56 0 19 -19 30 -52 30 -25 0 -47 27 -48
58 0 20 -5 22 -58 22 -32 0 -63 5 -70 12 -13 13 -16 51 -5 62 4 4 6 22 5 41
-2 18 1 36 7 40 6 3 11 22 11 41 0 19 5 34 10 34 6 0 10 3 10 8 0 4 -32 8 -72
10 -80 3 -92 12 -102 74 -6 36 -26 63 -26 35 0 -19 -38 -29 -62 -16 -21 11
-24 45 -5 52 22 10 53 7 65 -5z m4447 -132 c18 -13 18 -15 -10 -49 -25 -29
-37 -36 -69 -36 -46 -1 -65 19 -66 67 l0 32 63 0 c38 0 71 -6 82 -14z m685 -6
c28 -15 33 -41 12 -70 -16 -21 -28 -25 -80 -28 -56 -3 -63 0 -94 28 l-33 30
34 31 c32 30 37 31 89 25 30 -4 62 -11 72 -16z m-529 -6 c14 -17 5 -40 -24
-58 -24 -15 -62 23 -52 53 8 26 56 29 76 5z m241 6 c49 0 58 -3 64 -22 4 -14
1 -25 -10 -33 -8 -7 -13 -15 -9 -18 3 -4 -32 -6 -78 -4 -70 2 -87 5 -101 22
-34 39 -12 70 42 61 19 -3 61 -6 92 -6z m406 -152 c9 -7 20 -17 24 -22 4 -6
13 -5 22 3 11 10 20 10 37 0 22 -11 22 -12 3 -26 -10 -8 -27 -12 -38 -9 -12 3
-26 -4 -37 -17 -17 -21 -23 -22 -231 -22 -117 1 -225 4 -239 8 -21 5 -49 41
-49 63 0 2 15 13 33 25 30 19 43 20 245 15 155 -3 218 -8 230 -18z m-638 -3
c17 -9 30 -19 30 -23 -1 -34 -62 -52 -176 -52 -51 0 -96 -4 -99 -10 -9 -14
-67 -12 -87 4 -27 20 -22 45 12 64 16 9 30 20 30 25 0 4 59 7 130 7 98 0 138
-4 160 -15z m-3853 -140 c0 -8 -4 -12 -9 -9 -4 3 -8 9 -8 15 0 5 4 9 8 9 5 0
9 -7 9 -15z m-395 -118 c5 -11 8 -27 5 -37 -4 -15 7 -18 104 -22 123 -6 143
-15 134 -60 -5 -21 -3 -28 9 -28 9 0 16 5 16 11 0 8 13 9 41 5 23 -4 78 -9
123 -12 91 -7 116 -21 116 -66 0 -26 3 -28 23 -22 12 4 29 6 37 5 8 -1 74 -3
145 -5 72 -2 137 -4 145 -5 8 0 33 2 56 5 44 6 124 -11 124 -27 0 -5 -11 -21
-25 -34 -29 -30 -71 -32 -122 -8 -28 13 -39 14 -54 5 -27 -17 -169 -15 -193 3
-16 12 -23 12 -49 -1 -17 -10 -40 -13 -56 -10 -50 12 -186 15 -218 5 -26 -8
-33 -16 -33 -35 0 -17 -4 -23 -12 -18 -7 5 -9 2 -6 -8 5 -13 -7 -16 -75 -18
-113 -4 -134 -3 -165 12 -25 12 -27 19 -29 73 -1 33 3 67 8 77 6 11 5 19 -1
23 -6 4 -9 14 -8 23 2 14 -6 18 -43 20 -52 3 -73 29 -58 69 5 13 4 25 -1 28
-14 8 -12 49 1 62 17 17 49 11 61 -10z m288 -103 c0 -8 -4 -14 -8 -14 -4 0 -8
9 -8 19 0 11 4 17 8 15 4 -3 8 -12 8 -20z m50 -10 c0 -8 -4 -14 -10 -14 -5 0
-10 9 -10 21 0 11 5 17 10 14 6 -3 10 -13 10 -21z m965 -128 c23 -10 35 -22
35 -35 0 -26 -11 -32 -69 -38 -63 -6 -133 22 -129 52 2 15 13 22 43 26 67 10
84 10 120 -5z m-1287 -136 c13 -9 22 -25 22 -39 0 -13 -3 -21 -7 -18 -3 4 -14
0 -22 -8 -13 -11 -21 -12 -40 -2 -39 20 -48 43 -27 66 20 22 39 23 74 1z
m-284 -66 c17 -17 21 -51 7 -73 -7 -10 -13 -11 -30 -2 -24 13 -30 76 -8 84 6
3 13 6 14 6 1 1 9 -6 17 -15z m-125 -78 c7 -8 11 -30 9 -48 -4 -42 -39 -47
-48 -8 -13 55 11 90 39 56z m231 -225 c5 -11 10 -31 10 -46 l0 -26 171 6 c150
4 175 3 200 -12 28 -17 47 -49 35 -60 -3 -4 -6 2 -7 13 0 18 -1 18 -8 -1 -5
-11 -4 -25 1 -32 6 -7 8 -19 5 -27 -4 -9 7 -17 34 -25 29 -9 40 -18 45 -38 10
-36 -15 -52 -85 -52 -138 -2 -478 -19 -497 -25 -42 -15 -51 12 -50 136 l2 113
-48 -3 c-52 -4 -78 9 -78 39 0 25 4 26 99 34 65 5 86 4 92 -7 7 -10 12 -8 24
10 20 27 41 28 55 3z m-216 -313 c27 -37 16 -108 -15 -108 -33 0 -54 91 -27
118 17 17 25 15 42 -10z m5692 9 c16 -16 -45 -26 -148 -24 -110 2 -113 3 -93
20 17 15 36 17 128 13 59 -2 110 -6 113 -9z m-461 -37 c-4 -14 -8 -27 -11 -29
-2 -2 -33 4 -69 14 -52 14 -74 15 -108 7 -44 -11 -122 -2 -99 12 17 10 123 21
215 21 l78 1 -6 -26z m-1322 -11 c49 -6 103 -17 120 -24 l32 -13 -49 -7 c-26
-4 -74 -5 -105 -2 l-57 6 -25 -74 c-13 -41 -26 -75 -29 -75 -3 0 -10 13 -16
28 -10 26 -22 32 -142 65 -142 40 -168 43 -257 26 -33 -6 -83 -8 -112 -4 -52
6 -53 7 -53 40 l0 34 58 4 c138 8 555 6 635 -4z m640 -5 c59 -4 107 -10 107
-15 0 -4 -16 -5 -36 -2 -24 4 -39 2 -44 -7 -7 -11 -19 -11 -69 0 -49 10 -69
10 -106 0 -28 -8 -68 -10 -105 -7 -49 6 -61 4 -69 -10 -8 -16 -12 -16 -58 -1
-37 13 -42 16 -22 17 15 1 29 7 32 15 6 16 185 21 370 10z m-1509 -61 c8 -9
-161 -32 -236 -32 -26 -1 -49 3 -52 8 -11 17 272 40 288 24z m-359 -35 c-12
-38 -20 -40 -86 -23 -95 25 -105 35 -31 33 34 -1 65 2 69 5 3 4 17 7 30 7 21
0 23 -4 18 -22z m-561 -14 c7 -19 -10 -54 -27 -54 -7 0 -22 7 -33 15 -10 8
-37 20 -59 27 l-40 13 70 6 c39 3 73 6 76 7 4 1 10 -5 13 -14z m231 6 c3 -5 1
-10 -4 -10 -6 0 -11 5 -11 10 0 6 2 10 4 10 3 0 8 -4 11 -10z m-2735 -10 c27
-14 60 -73 60 -105 0 -16 -7 -36 -16 -46 -14 -16 -12 -17 38 -14 29 1 62 -2
73 -8 11 -6 31 -11 45 -11 41 -1 37 -32 -7 -54 -55 -28 -89 -35 -173 -37 -60
-1 -81 2 -102 17 -33 23 -35 37 -7 67 16 17 30 22 58 19 44 -4 44 14 -1 25
-43 11 -68 41 -68 83 0 58 51 90 100 64z m1823 -26 c26 -10 0 -71 -39 -89 -32
-15 -64 -18 -439 -45 -115 -8 -153 -14 -162 -26 -6 -9 -9 -22 -7 -28 6 -17
-22 -40 -37 -31 -7 5 -9 23 -6 48 7 54 -8 83 -57 103 l-41 17 40 8 c22 4 80 8
130 8 97 1 564 29 580 36 15 6 22 5 38 -1z m2154 -10 c-3 -3 -12 -4 -19 -1 -8
3 -5 6 6 6 11 1 17 -2 13 -5z m-2183 -112 c3 -5 2 -22 -3 -38 -7 -26 -12 -29
-41 -26 -19 1 -36 4 -38 6 -5 6 19 50 32 58 15 10 44 10 50 0z m-240 -25 c10
-7 18 -28 19 -47 2 -33 0 -35 -31 -38 -59 -6 -114 52 -80 86 16 16 70 15 92
-1z m-256 -29 c16 -16 -3 -38 -34 -38 -30 0 -38 15 -18 34 18 19 36 20 52 4z
m120 0 c19 -19 14 -25 -29 -32 -54 -9 -68 2 -32 25 33 22 45 23 61 7z m244
-18 c-5 -37 -19 -47 -38 -28 -23 22 -10 60 19 56 17 -2 21 -9 19 -28z m2458 9
c0 -11 -3 -11 -24 -3 -23 9 -20 23 4 17 11 -3 20 -9 20 -14z m-3908 -114 c-4
-35 -28 -65 -52 -65 -20 0 -30 19 -30 59 0 37 8 43 50 39 32 -3 35 -5 32 -33z
m-182 6 c14 -26 13 -74 -2 -89 -17 -17 -64 -15 -82 4 -23 22 -21 91 2 97 41
11 72 6 82 -12z m8850 -445 c0 -3 -4 -8 -10 -11 -5 -3 -10 -1 -10 4 0 6 5 11
10 11 6 0 10 -2 10 -4z m-9578 -38 c-6 -6 -15 -8 -19 -4 -4 4 -1 11 7 16 8 5
17 7 19 4 3 -2 -1 -10 -7 -16z m9230 -111 c-6 -7 -47 -30 -91 -51 -79 -39 -81
-39 -101 -21 l-21 19 33 12 c18 7 58 22 88 33 65 24 108 28 92 8z m-9727 -116
c3 -6 -4 -15 -16 -22 -17 -9 -23 -8 -30 2 -4 7 -5 17 -3 21 7 11 42 10 49 -1z
m9195 -111 c0 -15 -73 -60 -98 -60 -25 0 -40 26 -24 42 20 20 122 36 122 18z
m-370 -151 c-14 -12 -99 -58 -190 -104 -121 -60 -189 -88 -256 -104 -151 -35
-172 -25 -76 36 38 25 134 63 287 115 127 43 237 78 245 78 10 -1 7 -7 -10
-21z m-7630 -489 c0 -12 8 -32 17 -46 14 -22 14 -27 2 -35 -24 -15 -29 -10
-29 25 0 19 -4 38 -10 41 -15 10 -12 35 5 35 8 0 15 -9 15 -20z m5929 -179
c12 -8 12 -13 -3 -35 -23 -36 -56 -35 -56 2 0 16 3 32 7 35 9 10 35 8 52 -2z"/>
<path d="M2545 7619 c-4 -6 -5 -13 -2 -16 7 -7 27 6 27 18 0 12 -17 12 -25 -2z"/>
<path d="M2160 7375 c0 -8 5 -15 10 -15 6 0 10 7 10 15 0 8 -4 15 -10 15 -5 0
-10 -7 -10 -15z"/>
<path d="M2182 7247 c-13 -15 1 -43 16 -33 5 3 12 15 15 26 6 23 -14 28 -31 7z"/>
<path d="M2465 7230 c3 -5 8 -10 11 -10 2 0 4 5 4 10 0 6 -5 10 -11 10 -5 0
-7 -4 -4 -10z"/>
<path d="M2250 7150 c0 -15 5 -20 18 -18 9 2 17 10 17 18 0 8 -8 16 -17 18
-13 2 -18 -3 -18 -18z"/>
<path d="M5500 7337 c0 -3 7 -21 15 -41 21 -49 50 -46 50 4 0 32 -3 35 -32 38
-18 2 -33 1 -33 -1z"/>
<path d="M5730 7302 c0 -6 -3 -17 -6 -26 -11 -29 52 -48 166 -52 118 -4 140
-7 158 -18 6 -4 17 -4 22 -1 16 10 12 29 -10 43 -11 7 -20 18 -20 26 0 15 -44
22 -212 32 -63 4 -98 2 -98 -4z"/>
<path d="M6296 7125 c-3 -8 -1 -15 4 -15 6 0 10 7 10 15 0 8 -2 15 -4 15 -2 0
-6 -7 -10 -15z"/>
<path d="M7075 6190 c3 -5 8 -10 11 -10 2 0 4 5 4 10 0 6 -5 10 -11 10 -5 0
-7 -4 -4 -10z"/>
<path d="M7078 5813 c7 -3 16 -2 19 1 4 3 -2 6 -13 5 -11 0 -14 -3 -6 -6z"/>
<path d="M2186 6894 c-8 -21 -8 -21 9 -28 11 -4 15 1 15 19 0 28 -15 33 -24 9z"/>
<path d="M2553 6864 c-8 -20 7 -33 30 -25 16 6 16 8 -3 24 -18 15 -21 16 -27
1z"/>
<path d="M2410 6635 c-12 -14 -6 -35 9 -35 12 0 21 39 11 45 -4 3 -13 -2 -20
-10z"/>
<path d="M2965 6440 c-3 -5 -1 -10 4 -10 6 0 11 5 11 10 0 6 -2 10 -4 10 -3 0
-8 -4 -11 -10z"/>
<path d="M2695 6421 c-6 -11 9 -23 19 -14 9 9 7 23 -3 23 -6 0 -12 -4 -16 -9z"/>
<path d="M2688 6139 c-23 -39 -23 -54 0 -31 9 9 18 27 19 40 2 28 1 28 -19 -9z"/>
<path d="M1605 4141 c-3 -5 -1 -12 5 -16 5 -3 10 1 10 9 0 18 -6 21 -15 7z"/>
<path d="M9125 5730 c3 -5 14 -10 23 -10 15 0 15 2 2 10 -20 13 -33 13 -25 0z"/>
<path d="M9637 4833 c-14 -13 -6 -24 15 -21 27 4 36 28 11 28 -11 0 -23 -3
-26 -7z"/>
<path d="M2080 4853 c0 -15 -2 -16 -10 -3 -11 16 -11 15 -15 -17 -1 -15 3 -23
12 -23 10 0 14 -9 11 -32 -2 -26 1 -33 16 -36 15 -3 18 0 14 16 -3 10 -2 26 3
34 5 9 3 28 -4 47 -12 34 -27 41 -27 14z"/>
<path d="M2173 4850 c-6 -15 -7 -26 -1 -29 15 -5 20 5 16 31 l-5 23 -10 -25z"/>
<path d="M2290 4777 c0 -9 -3 -22 -6 -31 -4 -12 0 -16 16 -16 17 0 21 5 18 27
-3 28 -28 45 -28 20z"/>
<path d="M0 2140 c0 -5 5 -10 10 -10 6 0 10 5 10 10 0 6 -4 10 -10 10 -5 0
-10 -4 -10 -10z"/>
</g>
</svg>
